<svg xmlns="http://www.w3.org/2000/svg" viewBox="0 0 64 64" role="img" aria-label="Rewndly">
  <defs>
    <linearGradient id="bg" x1="10" y1="8" x2="56" y2="58" gradientUnits="userSpaceOnUse">
      <stop offset="0" stop-color="#2dd4bf"/>
      <stop offset=".48" stop-color="#7c3aed"/>
      <stop offset="1" stop-color="#fb7185"/>
    </linearGradient>
    <filter id="shadow" x="-20%" y="-20%" width="140%" height="140%">
      <feDropShadow dx="0" dy="4" stdDeviation="4" flood-color="#000" flood-opacity=".28"/>
    </filter>
  </defs>
  <rect width="64" height="64" rx="14" fill="#0b0d16"/>
  <rect x="7" y="7" width="50" height="50" rx="10" fill="url(#bg)" filter="url(#shadow)"/>
  <path d="M20 14h4v5h-4zm0 10h4v5h-4zm0 10h4v5h-4zm0 10h4v5h-4zm20-30h4v5h-4zm0 10h4v5h-4zm0 10h4v5h-4zm0 10h4v5h-4z" fill="#fff" opacity=".78"/>
  <path d="M29 23.5v17l14-8.5z" fill="#fff"/>
</svg>
